<svg xmlns="http://www.w3.org/2000/svg" viewBox="0 0 40.3 40.2"><path d="M30.9 16.2L30.9 16.2l-0.3-2.9 2.3 1.4 0 0.2L30.9 16.2zM31.4 16.5l1.6-1 0.2 2L31.4 16.5zM33.2 18.7l0.2 2 -1.9-1.1L33.2 18.7zM31.2 19.3l-0.2-2.6 2.3 1.3 0 0.2L31.2 19.3zM25.1 17.9l-0.1-2 4.1-2.5 0.2 2.1L25.1 17.9zM28.3 20.3l-2.9 1.7 -0.1-2.3 2.9-1.6L28.3 20.3zM29.5 17.3l0.2 2.2 -0.9 0.5 -0.2-2.2L29.5 17.3zM25.2 19.2l0-0.5 4.2-2.5 0.1 0.6L25.2 19.2zM24.5 20.1l0.2 2.4 -0.3 0.2 -0.2-2.4L24.5 20.1zM24.1 19.8l0-0.5 0.3-0.2 0 0.5L24.1 19.8zM20.1 25.2l-0.2 0.1 -0.1-1.6 0.2 0.2 0 0L20.1 25.2zM19.3 16.6c0-0.1-0.1-0.2-0.1-0.2 0 0 0-0.1 0.1-0.1 0.3-0.2 2.6-1.7 3-1.9 0.3-0.1 0.5-0.2 0.7-0.2 0.1 0 0.1 0 0.2 0 0.1 0 0.2 0.1 0.4 0.2 0.1 0.1 0.1 0.1 0.1 0.1l-0.4 0.7 -0.3 0.2 -0.7-0.4L19.3 16.6zM16.4 21.6l0-0.4 0.6-0.3 1.9 1.9 0 0L16.4 21.6zM16.6 24.1l-0.1-1.9 1.9 0.9L16.6 24.1zM18.4 26.2l-1.5 0.9 -0.1-1.9L18.4 26.2zM18.8 19.7l0.3-0.2 0.1 0.6L18.8 19.7zM18.8 23.3L18.8 23.3l0.1 2.5L18.8 26l-2.2-1.3 0-0.1L18.8 23.3zM20.1 37.7c-6.9 0-12.9-4.1-15.8-9.9l7-12.6 5.3 5.3L15.9 21l0.5 7.9 14.1-8.2 0 0.1 0-0.1 3.4 2 -0.7-8.1 -3.1-2 -1.1 0.3 -4.6 2.8 0.3-0.5L24.7 15l-0.9-0.9 0 0c-0.1-0.1-0.4-0.3-0.7-0.4 -0.1 0-0.1 0-0.2 0 -0.2 0-0.5 0-0.9 0.2 -0.4 0.2-3 1.9-3 1.9l0 0 0 0c-0.1 0.1-0.2 0.3-0.2 0.4 0 0.2 0.1 0.3 0.1 0.4l-0.5 0.3 0.1 1.2 0.5 0.7 -0.5 0.3 -6-6.3 -1.7-2.4 -1.5 1 -0.1 1.4L2.8 23.1c-0.2-1-0.3-2-0.3-3 0-9.7 7.9-17.6 17.6-17.6s17.6 7.9 17.6 17.6S29.8 37.7 20.1 37.7M3.5 25.8l6.8-11.8 0.2 0.1 -6.9 12C3.6 26 3.5 25.9 3.5 25.8M20.1 0C9 0 0 9 0 20.1c0 2.1 0.3 4.1 0.9 6 0.3 0.8 0.6 1.7 1 2.4 0 0.1 0.1 0.2 0.1 0.3 0.3 0.5 0.5 1.1 0.9 1.6 3.5 5.9 9.9 9.8 17.3 9.8 11.1 0 20.1-9 20.1-20.1C40.3 9 31.3 0 20.1 0" fill=""></path></svg>