<svg xmlns="http://www.w3.org/2000/svg" viewBox="0 0 52.28 46.13"><path d="M52.28,36.7l0-.11v0l-.17-.8-.08-.13,0-.08v0l-.33-.74-.21-.18v-.11l0,0a4.42,4.42,0,0,0-.47-.49A2.66,2.66,0,0,0,50,33.34l-.13-.07a3.19,3.19,0,0,0-.79-.23L49,32s0-.15-.39-.21h0l.29-.29,0-1.12-.58-1.67h-.21l-.19-1.1s-.1-.41-.39-.41h-.32l-1.16-3.82A2.16,2.16,0,0,0,44.32,22l-1.76-.11-.07-.09a15.08,15.08,0,0,0-2,0L32,8.88l-.4.07-.21-.27a.44.44,0,0,0,0-.34L29.84,6.11a.52.52,0,0,0-.62-.18l-.93.55S28,6.42,28,6.5L26,7.69l-.32-1.83a.88.88,0,0,0-.09-1l-1.07-1,0-.41-.44-1.19-.19,0h0L23,.11,22.17,0l-4.4,3.27a.45.45,0,0,0-.12.23L17.28,6l-.16,0,.11,2.45.35,1.33,0,1.58L13.22,11l-4.39-.38-1.34,0-.14.14,0,.14,1.32.3,3.78.5,1.09.11,2.78.23,1.32.12v.47L9,12l-3-.14-.18.11,0,.14,1.81.3,4.59.53,5.47.34,0,.18,1,0v-.14l.26,0,.44-.21.6,0a.42.42,0,0,0,.18-.29l.34-.14a.89.89,0,0,0,1.12.27s.42.52.46-.16a2.21,2.21,0,0,1,.28-.11c0,.09.36.41.42-.11l1.67-.32.28-.14.49-.09a.48.48,0,0,0,.16-.73l.39,0,.42-.14a.92.92,0,0,0,.74-1l.26-.25.46-.45h0a.72.72,0,0,1,.68.48l-.21.14,0,.21,5.63,8.15-.21.21-.09,1.21.3.39.14,0,0,.09.74,0,.88,1.51a14.53,14.53,0,0,0-3.29.57l.12.27h-.3l-.07.11-.25.07-.19.16a.9.9,0,0,0,0,.55c.1.19.15.22.24.23l.37,0,.39-.09.11-.07.12-.12.16.12a10.52,10.52,0,0,0-3.15,4.67,16.54,16.54,0,0,0-7.16,3.41l.09.23,0,.09.7,1.51-.72.34a1.78,1.78,0,0,0-.26.14A1.9,1.9,0,0,0,22,34l-.12-.06a3.08,3.08,0,0,0-1-.24h-.15l-.08,0h0l-.79,0v.22h-.05l-.07-.12,0-.06-.72.22v.27L18.84,34,18.79,34l-.64.47,0,.31L18,34.67l-.06,0-.55.57.06.33h0l-.11,0h-.06l-.38.76.06.3h-.18l-.16,1,.07.16h-.08l0,.88.16.34,0,0,.2.56.25.48.53.77h0A3.82,3.82,0,0,0,20.1,42h0l.67.08h0L20.9,42l.07,0,0,0,.73-.16.09-.09H22l.65-.4.1-.19h.11l.56-.62v-.18l.11,0h0l0-.08,0,.07.14,0,0,.06h-.11l0,1.12.22.45,0,0,.26.71.34.62.71,1h0A5.1,5.1,0,0,0,28.25,46h0c.2,0,.89.1.89.1h0l.13-.11.11.08,0,0,1-.21.13-.13h.18l.86-.51.14-.25h.15l.73-.79V44l.16-.06h0l.49-1,0-.25.13,0h.05l.31-1.14-.09-.26.11,0,0,0,0-1.12-.09-.31.05-.14v0l-.07-.33,1.88.55a2.64,2.64,0,0,0,1.71.28L43.92,39s.44-.14.69-.25a2.5,2.5,0,0,0,1-1.07l.22-.24h0v0l.1-.45h0l.06-.12.24-.13-.15.84-.27.14,0,.05.27-.14.3.12-.47.28-.26-.11,0,.06.22.09-.07,0,0,.15-.13.17h0l.24.62.24-.05h0l.38-.12h0l-.53.52.06.13-.17.16,0,0,.44.48-.08.07-.3.26h0l-.09-.11,0,0h0l-.4-.6v-.18l.26.2.33-.22,0-.05-.29.19-.33-.25v.21l-.07-.1L45,39.07l-.05-.14.51.63.06-.19h.11l.29-.26,0,0-.27.24h-.13l0,.13-.44-.55,0-.38-.07.07,0,.3-.07-.2a.33.33,0,0,1-.16.08l.14.39.26.51.54.81A3.88,3.88,0,0,0,48,41.79h0l.68.08h0l.1-.09.07,0,0,0,.74-.17.1-.1h.14l.67-.41.11-.2h.11l.57-.65v-.19l.11,0h0l.38-.81,0-.19.08,0H52l.24-.94-.07-.2.07,0,0,0,0-.92ZM5.79,1.89L5.79,0.37L0,0.37L0,0.37L0,0.37L0,46.13L0,46.13L0,46.13L5.79,46.13L5.79,44.61L1.52,44.61L1.52,40.49L5.01,40.49L5.01,39.98L1.52,39.98L1.52,34.86L5.01,34.86L5.01,34.36L1.52,34.36L1.52,29.23L5.01,29.23L5.01,28.73L1.52,28.73L1.52,23.6L5.01,23.6L5.01,23.1L1.52,23.1L1.52,17.97L5.01,17.97L5.01,17.47L1.52,17.47L1.52,12.34L5.01,12.34L5.01,11.84L1.52,11.84L1.52,6.71L5.01,6.71L5.01,6.21L1.52,6.21L1.52,1.89L5.79,1.89" fill="#666"></path></svg>