<svg xmlns="http://www.w3.org/2000/svg" viewBox="0 0 90.09 22.63"><path d="M 90.09 16.84 L 88.56 16.84 L 88.56 21.11 L 84.45 21.11 L 84.45 17.62 L 83.94 17.62 L 83.94 21.11 L 78.82 21.11 L 78.82 17.62 L 78.31 17.62 L 78.31 21.11 L 73.19 21.11 L 73.19 17.62 L 72.68 17.62 L 72.68 21.11 L 67.56 21.11 L 67.56 17.62 L 67.05 17.62 L 67.05 21.11 L 61.93 21.11 L 61.93 17.62 L 61.42 17.62 L 61.42 21.11 L 56.3 21.11 L 56.3 17.62 L 55.79 17.62 L 55.79 21.11 L 50.67 21.11 L 50.67 17.62 L 50.16 17.62 L 50.16 21.11 L 45.84 21.11 L 45.84 16.84 L 45.76 16.84 L 44.32 16.84 L 44.24 16.84 L 44.24 21.11 L 40.13 21.11 L 40.13 17.62 L 39.62 17.62 L 39.62 21.11 L 34.5 21.11 L 34.5 17.62 L 33.99 17.62 L 33.99 21.11 L 28.87 21.11 L 28.87 17.62 L 28.36 17.62 L 28.36 21.11 L 23.24 21.11 L 23.24 17.62 L 22.73 17.62 L 22.73 21.11 L 17.61 21.11 L 17.61 17.62 L 17.1 17.62 L 17.1 21.11 L 11.98 21.11 L 11.98 17.62 L 11.47 17.62 L 11.47 21.11 L 6.35 21.11 L 6.35 17.62 L 5.84 17.62 L 5.84 21.11 L 1.52 21.11 L 1.52 16.84 L 0 16.84 L 0 22.63 L 0 22.63 L 44.32 22.63 L 45.76 22.63 L 90.09 22.63 L 90.09 22.63 L 90.09 22.63 L 90.09 16.84 Z M 0 0 L 75 0 L 81 4 L 0 4 Z M 57.89 0 L 41 0 L 41 4 L 57.89 3.89 Z M 74.76 0 L 90.09 9.08 L 90.09 12.96 L 74.76 3.88 L 74.76 0 Z M 52.38 6.81 A 2.85 2.85 0 1 1 49 4 A 2.85 2.85 0 0 1 52.38 6.81 Z M 56.38 6.81 A 6.81 6.81 0 1 0 49.57 13.62 A 6.81 6.81 0 0 0 56.38 6.81 Z" fill="grey"></path></svg>