<svg xmlns="http://www.w3.org/2000/svg" xmlns:xlink="http://www.w3.org/1999/xlink" id="Layer_1" x="0px" y="0px" viewBox="0 0 428.5 78" style="enable-background:new 0 0 428.5 78;" xml:space="preserve"><style type="text/css">	.st0{fill:#FFFFFF;}	.st1{fill:#F58832;}</style><g>	<g>		<path class="st0" d="M394.2,5.1h-1.4v-1h4.1v1h-1.4v4.3h-1.2V5.1z"></path>		<path class="st0" d="M401.9,7.3c0-0.6,0-1.4,0-2.2h0c-0.2,0.7-0.4,1.4-0.6,2.1l-0.6,2.1h-0.9l-0.6-2.1c-0.2-0.6-0.4-1.4-0.5-2.1h0   c0,0.7-0.1,1.5-0.1,2.2l-0.1,2h-1.1l0.3-5.3h1.6l0.5,1.8c0.2,0.6,0.3,1.3,0.4,1.9h0c0.1-0.6,0.3-1.3,0.5-1.9l0.6-1.8h1.6l0.3,5.3   H402L401.9,7.3z"></path>	</g></g><g>	<g>		<path class="st0" d="M172.5,66.1h-12.9V37.8c0-12-5.1-13.6-10.1-13.6c-6.6,0-10.7,2.9-10.7,17.4v24.5h-12.9V12.5h12.5v3   c3.4-2.6,7.2-3.8,11.9-3.8c14.1,0,22.1,8.8,22.1,24.2V66.1L172.5,66.1z"></path>		<path class="st0" d="M206.2,67.5c-7.8,0-14.5-2.8-19.8-8.4c-5-5.2-7.9-12.6-7.9-19.8c0-7.5,2.6-14.2,7.6-19.5   c5.4-5.8,12.3-8.9,19.7-8.9c7.8,0,14.4,2.8,19.8,8.3c5.3,5.4,8.2,12.3,8.2,19.5c0,7.3-2.7,14.5-7.4,19.7   C220.8,64.4,213.9,67.5,206.2,67.5L206.2,67.5z M206.1,23.7c-8.2,0-14.4,6.7-14.4,15.6c0,8.8,6.2,15.5,14.5,15.5   c8.2,0,14.3-6.7,14.3-15.6C220.5,30.2,214.4,23.7,206.1,23.7L206.1,23.7z"></path>		<path class="st0" d="M252.5,66.1h-12.9V12.5H252V15c2.7-2.2,5.9-3.3,9.8-3.4l2,0v13.1l-1.8,0.1c-7,0.5-9.4,3.5-9.4,11.6V66.1   L252.5,66.1z"></path>		<polygon class="st0" points="317.2,66.1 300.6,66.1 283.5,44.5 283.5,66.1 270.7,66.1 270.7,4.1 283.5,4.1 283.5,31.8 298.3,12.5    313.7,12.5 294,38 317.2,66.1   "></polygon>		<path class="st0" d="M339.9,67.4c-7.8,0-14.5-2.8-19.7-8.4c-5-5.2-7.9-12.6-7.9-19.8c0-7.5,2.5-14.1,7.6-19.5   c5.3-5.8,12-8.8,19.9-8.8c9.4,0,17.9,4.5,23.1,12.4c3.1,4.8,4.6,10.4,4.6,17.7v1.4v1.9h-1.9h-39.4c2,6.1,7.3,10.1,13.8,10.1   c4.5,0,8.5-2,11.1-5.4c0,0,0,0,0,0h14.7C360.8,60.9,351.6,67.4,339.9,67.4L339.9,67.4z M326.6,32.6h26.3c-2.4-5.7-7-9-12.9-9   C334,23.6,329,27,326.6,32.6L326.6,32.6z"></path>		<polygon class="st0" points="386.7,66.1 373.9,66.1 373.9,4.1 386.7,4.1 386.7,66.1   "></polygon>		<path class="st0" d="M113,39.4c-3.6-2.4-17.8-9.2-20.7-10.9c-0.6-0.3-0.8-0.8-0.9-1.2c-0.2-0.6,0.1-1.2,0.4-1.6   c0.1-0.1,0.3-0.2,0.5-0.3c0.4-0.2,0.9-0.2,1.6-0.2h23.5V12.5H96.6c-11,0-18.4,6.1-18.4,15.2c0,3.8,1.2,6.9,4.9,10   c4.6,3.7,20.4,11,22.6,12.4c0.6,0.4,0.8,0.8,0.9,1.2c0.2,0.6-0.1,1.2-0.4,1.6c-0.1,0.1-0.3,0.2-0.5,0.3c-0.4,0.2-0.9,0.2-1.6,0.2   H78.3v12.8h23c11,0,18.4-6.1,18.4-15.2C119.7,48.4,119.2,43.7,113,39.4z"></path>	</g>	<path class="st0" d="M26.6,1.6C12.1,1.6,0.4,13.4,0.4,27.8V77h41.8c14.5,0,26.2-11.8,26.2-26.2V1.6H26.6z M65.9,50.8  c0,13.1-10.6,23.7-23.7,23.7H2.9V27.8c0-13.1,10.6-23.7,23.7-23.7h39.3V50.8z"></path>	<g>		<path class="st1" d="M13.7,53.3v12.8h23c10,0,17-5,18.2-12.8H13.7z"></path>		<path class="st0" d="M48.3,39.4c-3.6-2.4-17.8-9.2-20.7-10.9c-0.6-0.3-0.8-0.8-0.9-1.2c-0.2-0.6,0.1-1.2,0.4-1.6   c0.1-0.1,0.3-0.2,0.5-0.3c0.4-0.2,0.9-0.2,1.6-0.2h23.5V12.5H32c-11,0-18.4,6.1-18.4,15.2c0,3.8,1.2,6.9,4.9,10   c4.6,3.7,20.4,11,22.6,12.4c0.3,0.2,0.5,0.4,0.6,0.6h13.3C55,48.1,54.4,43.5,48.3,39.4z"></path>	</g></g></svg>