<svg xmlns="http://www.w3.org/2000/svg" id="08e8dd98-c047-47e2-834c-3ec38aca522d" data-name="Layer 1" viewBox="0 0 49.28 26.54"><path class="8a560f45-d30a-4211-842e-cd2472393cc3" d="M45,0H4.27A4.12,4.12,0,0,0,0,4.27v18a4.12,4.12,0,0,0,4.27,4.27H45a4.12,4.12,0,0,0,4.27-4.27v-18A4.12,4.12,0,0,0,45,0ZM23.46,4.73a1.18,1.18,0,1,1,1.47,1.14h-.58A1.18,1.18,0,0,1,23.46,4.73Zm9.7,1.14H27a2.59,2.59,0,1,0-4.65,0H16.12L15.63,10H11.58V1.22H37.7V10H33.65Zm-17.67,5.3-.93,7.64H34.72l-.93-7.64h3.9v10H11.58v-10Zm-5.06,10H1.22v-10h9.2Zm28.43,0v-10h9.2v10Zm9.2-16.89V10h-9.2V1.22H45A2.93,2.93,0,0,1,48.06,4.27Zm-43.78-3h6.15V10H1.22V4.27A2.93,2.93,0,0,1,4.27,1.22Z" transform="translate(0 0)"></path></svg>