<svg xmlns="http://www.w3.org/2000/svg" viewBox="0 0 39.2 40.3"><path d="M16.3 22.4c-3.4 0-6.1-2.7-6.1-6.1s2.7-6.1 6.1-6.1c3.4 0 6.1 2.7 6.1 6.1S19.6 22.4 16.3 22.4M29.2 16.3c0-2.2 1.4-4 3.3-4.7 -0.4-1.2-0.8-2.4-1.5-3.5 -1.8 0.9-4.1 0.5-5.6-1 -1.5-1.5-1.9-3.8-1-5.6C23.4 0.8 22.2 0.4 21 0c-0.7 1.9-2.5 3.3-4.7 3.3 -2.2 0-4-1.4-4.7-3.3 -1.2 0.4-2.4 0.8-3.5 1.5 0.9 1.8 0.5 4.1-1 5.6 -1.5 1.5-3.8 1.9-5.6 1C0.8 9.2 0.4 10.4 0 11.6c1.9 0.7 3.3 2.5 3.3 4.7S1.9 20.3 0 21c0.4 1.2 0.8 2.4 1.5 3.5 1.8-0.9 4.1-0.5 5.6 1 1.5 1.5 1.8 3.8 1 5.6 1.1 0.6 2.3 1.1 3.5 1.5 0.7-1.9 2.5-3.3 4.7-3.3 2.2 0 4 1.4 4.7 3.3 1.2-0.4 2.4-0.8 3.5-1.5 -0.9-1.8-0.5-4.1 1-5.6 1.5-1.5 3.8-1.8 5.6-1 0.6-1.1 1.1-2.3 1.5-3.5C30.6 20.3 29.2 18.4 29.2 16.3M33.5 36.3c-1.2 0.4-2.5-0.3-2.8-1.6 -0.4-1.2 0.3-2.5 1.6-2.8 1.2-0.4 2.5 0.3 2.8 1.6S34.7 35.9 33.5 36.3M37.5 32.7c-0.2-0.8 0.1-1.6 0.7-2 -0.3-0.4-0.6-0.8-0.9-1.1 -0.6 0.5-1.4 0.6-2.1 0.2 -0.7-0.4-1.1-1.2-0.9-1.9 -0.5-0.1-0.9-0.2-1.4-0.2 0 0.8-0.6 1.5-1.3 1.7 -0.8 0.2-1.6-0.1-2-0.7 -0.4 0.3-0.8 0.6-1.1 0.9 0.5 0.6 0.6 1.4 0.2 2.1 -0.4 0.7-1.2 1.1-1.9 0.9 -0.1 0.5-0.2 0.9-0.2 1.4 0.8 0 1.5 0.6 1.7 1.3 0.2 0.8-0.1 1.6-0.7 2 0.3 0.4 0.6 0.8 0.9 1.1 0.6-0.5 1.4-0.6 2.1-0.2 0.7 0.4 1.1 1.2 0.9 1.9 0.5 0.1 0.9 0.2 1.4 0.2 0-0.8 0.6-1.5 1.3-1.7 0.8-0.2 1.6 0.1 2 0.7 0.4-0.3 0.8-0.6 1.1-0.9 -0.5-0.6-0.6-1.4-0.2-2.1 0.4-0.7 1.2-1.1 1.9-0.9 0.1-0.5 0.2-0.9 0.2-1.4C38.5 34 37.8 33.5 37.5 32.7" fill=""></path></svg>